<svg width="0" height="0" class="hidden">
  <symbol fill="none" xmlns="http://www.w3.org/2000/svg" viewBox="0 0 18 18" id="tel">
    <path d="M3.62 7.79C5.06 10.62 7.38 12.93 10.21 14.38L12.41 12.18C12.68 11.91 13.08 11.82 13.43 11.94C14.55 12.31 15.76 12.51 17 12.51C17.55 12.51 18 12.96 18 13.51V17C18 17.55 17.55 18 17 18C7.61 18 0 10.39 0 1C0 0.45 0.45 0 1 0H4.5C5.05 0 5.5 0.45 5.5 1C5.5 2.25 5.7 3.45 6.07 4.57C6.18 4.92 6.1 5.31 5.82 5.59L3.62 7.79Z" fill="#c9c9c9"></path>
  </symbol>
  <symbol fill="none" xmlns="http://www.w3.org/2000/svg" viewBox="0 0 20 16" id="mail">
    <path d="M18 0H2C0.9 0 0.00999999 0.9 0.00999999 2L0 14C0 15.1 0.9 16 2 16H18C19.1 16 20 15.1 20 14V2C20 0.9 19.1 0 18 0ZM18 4L10 9L2 4V2L10 7L18 2V4Z" fill="#c9c9c9"></path>
  </symbol>
  <symbol fill="none" xmlns="http://www.w3.org/2000/svg" viewBox="0 0 50 50" id="telegram">
    <path d="M50 25C50 38.8071 38.8071 50 25 50C11.1929 50 0 38.8071 0 25C0 11.1929 11.1929 0 25 0C38.8071 0 50 11.1929 50 25ZM25.896 18.4562C23.4644 19.4676 18.6046 21.5609 11.3166 24.7362C10.1331 25.2068 9.51316 25.6672 9.45673 26.1174C9.36135 26.8782 10.3141 27.1778 11.6115 27.5858C11.788 27.6413 11.9709 27.6988 12.1583 27.7597C13.4348 28.1746 15.1518 28.66 16.0445 28.6793C16.8542 28.6968 17.7579 28.363 18.7556 27.6779C25.565 23.0814 29.0801 20.758 29.3008 20.708C29.4565 20.6726 29.6722 20.6282 29.8184 20.7581C29.9646 20.8881 29.9502 21.1341 29.9347 21.2001C29.8403 21.6025 26.1004 25.0795 24.165 26.8788C23.5616 27.4397 23.1336 27.8376 23.0461 27.9285C22.8501 28.1321 22.6504 28.3246 22.4584 28.5097C21.2726 29.6529 20.3833 30.5101 22.5077 31.9101C23.5285 32.5828 24.3455 33.1391 25.1604 33.6941C26.0505 34.3002 26.9382 34.9048 28.0868 35.6577C28.3794 35.8495 28.6589 36.0488 28.9311 36.2428C29.9669 36.9813 30.8975 37.6447 32.0472 37.5389C32.7152 37.4774 33.4053 36.8493 33.7557 34.9758C34.5839 30.5483 36.2118 20.9552 36.5881 17.0021C36.621 16.6558 36.5796 16.2126 36.5463 16.018C36.513 15.8234 36.4434 15.5462 36.1905 15.341C35.8909 15.0979 35.4285 15.0467 35.2217 15.0503C34.2814 15.0669 32.8388 15.5685 25.896 18.4562Z" fill="#c9c9c9"></path>
  </symbol>
  <symbol xmlns="http://www.w3.org/2000/svg" viewBox="0 0 50 50" id="vk">
    <path d="M41,4H9C6.24,4,4,6.24,4,9v32c0,2.76,2.24,5,5,5h32c2.76,0,5-2.24,5-5V9C46,6.24,43.76,4,41,4z M37.72,33l-3.73-0.01 c0,0-0.08,0.01-0.21,0.01c-0.3,0-0.92-0.08-1.65-0.58c-1.31-0.91-2.56-3.17-3.55-3.17c-0.07,0-0.13,0.01-0.19,0.03 c-0.86,0.27-1.12,1.13-1.12,2.18c0,0.37-0.26,0.54-0.96,0.54h-1.93c-2.16,0-4.25-0.05-6.6-2.62c-3.46-3.79-6.7-10.53-6.7-10.53 s-0.18-0.39,0.01-0.62c0.18-0.21,0.6-0.23,0.76-0.23c0.04,0,0.06,0,0.06,0h4c0,0,0.37,0.07,0.64,0.27c0.23,0.17,0.35,0.48,0.35,0.48 s0.68,1.32,1.53,2.81c1.43,2.46,2.2,3.28,2.75,3.28c0.09,0,0.18-0.02,0.27-0.07c0.82-0.45,0.58-4.09,0.58-4.09s0.01-1.32-0.42-1.9 c-0.33-0.46-0.96-0.59-1.24-0.63c-0.22-0.03,0.14-0.55,0.62-0.79c0.62-0.3,1.65-0.36,2.89-0.36h0.6c1.17,0.02,1.2,0.14,1.66,0.25 c1.38,0.33,0.91,1.62,0.91,4.71c0,0.99-0.18,2.38,0.53,2.85c0.05,0.03,0.12,0.05,0.21,0.05c0.46,0,1.45-0.59,3.03-3.26 c0.88-1.52,1.56-3.03,1.56-3.03s0.15-0.27,0.38-0.41c0.22-0.13,0.22-0.13,0.51-0.13h0.03c0.32,0,3.5-0.03,4.2-0.03h0.08 c0.67,0,1.28,0.01,1.39,0.42c0.16,0.62-0.49,1.73-2.2,4.03c-2.82,3.77-3.14,3.49-0.8,5.67c2.24,2.08,2.7,3.09,2.78,3.22 C39.68,32.88,37.72,33,37.72,33z" fill="#c9c9c9"></path>
  </symbol>
  <symbol xmlns="http://www.w3.org/2000/svg" viewBox="0 0 50 50" id="whatsapp">
    <path d="M25,2C12.318,2,2,12.318,2,25c0,3.96,1.023,7.854,2.963,11.29L2.037,46.73c-0.096,0.343-0.003,0.711,0.245,0.966 C2.473,47.893,2.733,48,3,48c0.08,0,0.161-0.01,0.24-0.029l10.896-2.699C17.463,47.058,21.21,48,25,48c12.682,0,23-10.318,23-23 S37.682,2,25,2z M36.57,33.116c-0.492,1.362-2.852,2.605-3.986,2.772c-1.018,0.149-2.306,0.213-3.72-0.231 c-0.857-0.27-1.957-0.628-3.366-1.229c-5.923-2.526-9.791-8.415-10.087-8.804C15.116,25.235,13,22.463,13,19.594 s1.525-4.28,2.067-4.864c0.542-0.584,1.181-0.73,1.575-0.73s0.787,0.005,1.132,0.021c0.363,0.018,0.85-0.137,1.329,1.001 c0.492,1.168,1.673,4.037,1.819,4.33c0.148,0.292,0.246,0.633,0.05,1.022c-0.196,0.389-0.294,0.632-0.59,0.973 s-0.62,0.76-0.886,1.022c-0.296,0.291-0.603,0.606-0.259,1.19c0.344,0.584,1.529,2.493,3.285,4.039 c2.255,1.986,4.158,2.602,4.748,2.894c0.59,0.292,0.935,0.243,1.279-0.146c0.344-0.39,1.476-1.703,1.869-2.286 s0.787-0.487,1.329-0.292c0.542,0.194,3.445,1.604,4.035,1.896c0.59,0.292,0.984,0.438,1.132,0.681 C37.062,30.587,37.062,31.755,36.57,33.116z" fill="#c9c9c9"></path>
  </symbol>
</svg>