<svg xmlns="http://www.w3.org/2000/svg" width="50" height="50"><path d="M41 4H9C6.24 4 4 6.24 4 9v32c0 2.76 2.24 5 5 5h32c2.76 0 5-2.24 5-5V9c0-2.76-2.24-5-5-5zm-3.28 29-3.73-.01s-.08.01-.21.01c-.3 0-.92-.08-1.65-.58-1.31-.91-2.56-3.17-3.55-3.17-.07 0-.13.01-.19.03-.86.27-1.12 1.13-1.12 2.18 0 .37-.26.54-.96.54h-1.93c-2.16 0-4.25-.05-6.6-2.62-3.46-3.79-6.7-10.53-6.7-10.53s-.18-.39.01-.62c.18-.21.6-.23.76-.23h4.06s.37.07.64.27c.23.17.35.48.35.48s.68 1.32 1.53 2.81c1.43 2.46 2.2 3.28 2.75 3.28.09 0 .18-.02.27-.07.82-.45.58-4.09.58-4.09s.01-1.32-.42-1.9c-.33-.46-.96-.59-1.24-.63-.22-.03.14-.55.62-.79.62-.3 1.65-.36 2.89-.36h.6c1.17.02 1.2.14 1.66.25 1.38.33.91 1.62.91 4.71 0 .99-.18 2.38.53 2.85.05.03.12.05.21.05.46 0 1.45-.59 3.03-3.26.88-1.52 1.56-3.03 1.56-3.03s.15-.27.38-.41c.22-.13.22-.13.51-.13h.03c.32 0 3.5-.03 4.2-.03h.08c.67 0 1.28.01 1.39.42.16.62-.49 1.73-2.2 4.03-2.82 3.77-3.14 3.49-.8 5.67 2.24 2.08 2.7 3.09 2.78 3.22.93 1.54-1.03 1.66-1.03 1.66z" fill="#c9c9c9"/></svg>